<svg width="90" height="90" viewBox="0 0 90 90" fill="none" xmlns="http://www.w3.org/2000/svg">
<rect x="0.5" y="0.5" width="89" height="89" rx="44.5" fill="#E5F4FF"/>
<rect x="0.5" y="0.5" width="89" height="89" rx="44.5" stroke="#DAD5D0"/>
<g clip-path="url(#clip0_6350_27711)">
<path d="M72.3975 71.3045L68.791 69.8763C60.9556 72.8338 52.7773 73.679 45.5 73.5428C32.394 73.2996 22.209 69.8763 22.209 69.8763L18.6025 71.3045C14.3867 72.9744 11.6621 76.9837 11.6621 81.5188V87.5027C11.6621 88.7156 12.6465 89.7 13.8594 89.7H22.209C22.209 89.7 33.0005 86.6516 45.5 86.1756C53.3384 85.8767 61.8491 86.5901 68.791 89.7H77.1406C78.3535 89.7 79.3379 88.7156 79.3379 87.5027V81.5188C79.3379 76.9837 76.6133 72.9744 72.3975 71.3045Z" fill="#FFBA84"/>
<path d="M79.3379 81.5188V87.5027C79.3379 88.7156 78.3535 89.7 77.1406 89.7H68.791C61.8491 86.5901 53.3384 85.8767 45.5 86.1756V73.5428C52.7773 73.679 60.9556 72.8338 68.791 69.8763L72.3975 71.3045C76.6133 72.9744 79.3379 76.9837 79.3379 81.5188Z" fill="#F4A76C"/>
<path d="M54.5117 64.219C54.2554 64.1179 53.98 64.0652 53.7031 64.0652H37.2969C37.02 64.0652 36.7446 64.1179 36.4883 64.219L22.209 69.8763V89.7H68.791V69.8763L54.5117 64.219Z" fill="#FF6C6C"/>
<path d="M68.791 69.8763V89.7H45.5V64.0652H53.7031C53.98 64.0652 54.2554 64.1179 54.5117 64.219L68.791 69.8763Z" fill="#E53950"/>
<path d="M53.7031 64.0652H37.2969C36.084 64.0652 35.0996 65.0496 35.0996 66.2625V69.7781C35.0996 75.513 39.7651 80.1785 45.5 80.1785C51.2349 80.1785 55.9004 75.513 55.9004 69.7781V66.2625C55.9004 65.0496 54.916 64.0652 53.7031 64.0652Z" fill="#FFBA84"/>
<path d="M55.9004 66.2625V69.7781C55.9004 75.513 51.2349 80.1785 45.5 80.1785V64.0652H53.7031C54.916 64.0652 55.9004 65.0496 55.9004 66.2625Z" fill="#F4A76C"/>
<path d="M59.5625 18.3621H50.5376C48.7915 19.4021 47.0967 20.0071 45.5 20.3089C39.04 21.5291 34.2061 17.7835 34.2061 17.7835C29.5229 17.2107 24.897 16.2132 20.3735 14.7996C19.707 14.5916 18.9805 14.7132 18.4165 15.1277C17.854 15.5409 17.5215 16.1985 17.5215 16.8972V31.1062C17.5215 38.7791 23.7646 45.0222 31.4375 45.0222H71.2812C72.4941 45.0222 73.4785 44.0379 73.4785 42.825V32.2781C73.4785 24.6053 67.2354 18.3621 59.5625 18.3621Z" fill="#78777F"/>
<path d="M73.4785 32.2781V42.825C73.4785 44.0379 72.4941 45.0222 71.2812 45.0222H45.5V20.3089C47.0967 20.0071 48.7915 19.4021 50.5376 18.3621H59.5625C67.2354 18.3621 73.4785 24.6053 73.4785 32.2781Z" fill="#616169"/>
<path d="M58.8726 33.1746L55.2588 29.0437C52.6177 26.0276 50.9888 22.3391 50.5376 18.3621H43.7158C40.5298 18.3621 37.354 18.1687 34.2061 17.7835L34.3701 19.8167C34.8857 26.199 38.0029 32.2107 42.9219 36.3094C43.3159 36.6389 43.814 36.8191 44.3281 36.8191H57.2188C58.0815 36.8191 58.8638 36.3152 59.2197 35.5301C59.5757 34.7449 59.4395 33.8235 58.8726 33.1746Z" fill="#EEE1DC"/>
<path d="M59.2197 35.5301C58.8638 36.3152 58.0815 36.8191 57.2188 36.8191H45.5V18.3621H50.5376C50.9888 22.3391 52.6177 26.0276 55.2588 29.0437L58.8726 33.1746C59.4395 33.8235 59.5757 34.7449 59.2197 35.5301Z" fill="#E0D2CD"/>
<path d="M27.9219 54.3972H22.0625C18.2662 54.3972 15.1777 51.3088 15.1777 47.5125C15.1777 43.7162 18.2662 40.6277 22.0625 40.6277H27.9219C29.1354 40.6277 30.1191 41.6115 30.1191 42.825V52.2C30.1191 53.4135 29.1354 54.3972 27.9219 54.3972Z" fill="#FFBA84"/>
<path d="M68.9375 54.3972H63.0781C61.8646 54.3972 60.8809 53.4135 60.8809 52.2V42.825C60.8809 41.6115 61.8646 40.6277 63.0781 40.6277H68.9375C72.7338 40.6277 75.8223 43.7162 75.8223 47.5125C75.8223 51.3088 72.7338 54.3972 68.9375 54.3972Z" fill="#F4A76C"/>
<path d="M45.5 32.4246H27.9219C26.709 32.4246 25.7246 33.409 25.7246 34.6219V52.2C25.7246 63.1043 34.5957 71.9754 45.5 71.9754C45.5 71.9754 53.0201 65.3015 53.0201 54.3972L51.2135 40.6277L45.5 32.4246Z" fill="#FCD0A2"/>
<path d="M65.2754 34.6219V52.2C65.2754 63.1043 56.4043 71.9754 45.5 71.9754V32.4246H63.0781C64.291 32.4246 65.2754 33.409 65.2754 34.6219Z" fill="#FFBA84"/>
<path d="M49.71 64.8313C48.3535 65.284 46.9268 65.5096 45.5 65.5096C44.0732 65.5096 42.6465 65.284 41.29 64.8313C40.1387 64.4475 39.5161 63.2039 39.8999 62.0525C40.2837 60.9012 41.5288 60.2786 42.6787 60.6624C43.5884 60.9656 44.5449 61.118 45.5 61.118C46.4551 61.118 47.4116 60.9656 48.3213 60.6624C49.4727 60.2786 50.7163 60.9012 51.1001 62.0525C51.4839 63.2039 50.8613 64.4475 49.71 64.8313Z" fill="#FFBA84"/>
<path d="M49.71 64.8313C48.3535 65.284 46.9268 65.5096 45.5 65.5096V61.118C46.4551 61.118 47.4116 60.9656 48.3213 60.6624C49.4727 60.2786 50.7163 60.9012 51.1001 62.0525C51.4839 63.2039 50.8613 64.4475 49.71 64.8313Z" fill="#F4A76C"/>
<path d="M65.2754 42.825V45.7547C65.2754 50.5198 61.3979 54.3972 56.6328 54.3972C52.4185 54.3972 48.8999 51.3636 48.1426 47.366H42.8574C42.1001 51.3636 38.5815 54.3972 34.3672 54.3972C29.6021 54.3972 25.7246 50.5198 25.7246 45.7547V42.825C25.7246 41.6121 26.709 40.6277 27.9219 40.6277H40.8125C42.0254 40.6277 43.0098 41.6121 43.0098 42.825V42.9715H47.9902V42.825C47.9902 41.6121 48.9746 40.6277 50.1875 40.6277H63.0781C64.291 40.6277 65.2754 41.6121 65.2754 42.825Z" fill="#78777F"/>
<path d="M65.2754 42.825V45.7547C65.2754 50.5198 61.3979 54.3972 56.6328 54.3972C52.4185 54.3972 48.8999 51.3636 48.1426 47.366H45.5V42.9715H47.9902V42.825C47.9902 41.6121 48.9746 40.6277 50.1875 40.6277H63.0781C64.291 40.6277 65.2754 41.6121 65.2754 42.825Z" fill="#616169"/>
</g>
<defs>
<clipPath id="clip0_6350_27711">
<rect width="75" height="75" fill="white" transform="translate(8 14.7)"/>
</clipPath>
</defs>
</svg>
