<svg width="90" height="90" viewBox="0 0 90 90" fill="none" xmlns="http://www.w3.org/2000/svg">
<rect x="0.5" y="0.5" width="89" height="89" rx="44.5" fill="#E5F4FF"/>
<rect x="0.5" y="0.5" width="89" height="89" rx="44.5" stroke="#DAD5D0"/>
<g clip-path="url(#clip0_6350_27699)">
<path d="M23.243 32.5735C20.5785 32.5735 17.4247 32.0179 15.2557 29.851C11.0636 25.6567 12.9021 17.7704 13.1253 16.8864C13.3228 16.1012 13.9341 15.4898 14.7194 15.2923C15.6012 15.0692 23.4876 13.2306 27.6841 17.4226C31.8762 21.6169 30.0375 29.5034 29.8145 30.3874C29.617 31.1726 29.0057 31.784 28.2204 31.9814C27.7933 32.0887 25.7338 32.5735 23.243 32.5735Z" fill="#6D3326"/>
<path d="M23.5304 58.6507H21.3336C16.4872 58.6507 12.546 54.7097 12.546 49.8631C12.546 45.0165 16.487 41.0755 21.3336 41.0755H23.5304C24.7448 41.0755 25.7272 42.0581 25.7272 43.2723V56.4536C25.7274 57.6681 24.7448 58.6507 23.5304 58.6507Z" fill="#FFA78F"/>
<path d="M69.6651 58.6507H67.4683C66.2539 58.6507 65.2714 57.6681 65.2714 56.4538V43.2726C65.2714 42.0582 66.2541 41.0758 67.4683 41.0758H69.6651C74.5115 41.0758 78.4527 45.0168 78.4527 49.8634C78.4527 54.71 74.5115 58.6507 69.6651 58.6507Z" fill="#F89580"/>
<path d="M82.9928 87.5031C82.9928 88.7333 82.0263 89.6999 80.796 89.6999H10.2027C8.97222 89.6999 8.00586 88.7331 8.00586 87.5031C8.00586 79.0231 14.9041 71.9784 23.3841 71.9784H67.6147C76.0946 71.9784 82.9928 79.0233 82.9928 87.5031Z" fill="#FF5CA8"/>
<path d="M82.9928 87.5031C82.9928 88.7333 82.0263 89.6999 80.796 89.6999H45.4993V71.9784H67.6147C76.0946 71.9784 82.9928 79.0233 82.9928 87.5031Z" fill="#FF3997"/>
<path d="M69.6651 45.4694V56.4538C69.6651 69.7668 58.8126 80.766 45.4994 80.766C32.1862 80.766 21.3336 69.7668 21.3336 56.4538V45.4694L32.318 32.2882H58.6807L69.6651 45.4694Z" fill="#FFCEBF"/>
<path d="M69.6651 45.4694V56.4538C69.6651 69.7668 58.8126 80.766 45.4994 80.766V32.288L58.6807 32.2882L69.6651 45.4694Z" fill="#FFBFAB"/>
<path d="M69.6651 43.2725V45.4694L63.0745 45.4693C55.4293 45.4693 48.7947 41.1194 45.4994 34.7485C42.2041 41.1194 35.5695 45.4693 27.9244 45.4693L21.3336 45.4694V43.2725C21.3336 29.9592 32.186 19.1068 45.4993 19.1068C58.8125 19.1068 69.6651 29.9594 69.6651 43.2725Z" fill="#883F2E"/>
<path d="M55.7368 68.068C52.9247 70.5725 49.2778 71.9784 45.4991 71.9784C41.7204 71.9784 38.0737 70.5725 35.2615 68.068C34.3389 67.2332 34.251 65.8712 35.0858 64.9483C35.8767 64.0697 37.2827 63.9818 38.1614 64.7727C40.1825 66.618 42.8627 67.4969 45.4988 67.4969C48.135 67.4969 50.8155 66.6181 52.8362 64.7727C53.715 63.9818 55.1211 64.0699 55.9118 64.9483C56.7474 65.8712 56.6593 67.2332 55.7368 68.068Z" fill="#FF712F"/>
<path d="M68.0258 32.5735C65.5372 32.5735 63.4774 32.0887 63.0506 31.9814C62.2654 31.784 61.654 31.1727 61.4565 30.3874C61.2334 29.5035 59.3948 21.6169 63.5869 17.4226C67.7876 13.2306 75.672 15.0713 76.5516 15.2923C77.3368 15.4898 77.9482 16.1011 78.1457 16.8864C78.3688 17.7703 80.2074 25.6568 76.0153 29.8511C73.8485 32.0179 70.6905 32.5735 68.0258 32.5735Z" fill="#55271A"/>
<path d="M36.7111 54.257C37.9244 54.257 38.9079 53.2735 38.9079 52.0602C38.9079 50.8469 37.9244 49.8634 36.7111 49.8634C35.4978 49.8634 34.5143 50.8469 34.5143 52.0602C34.5143 53.2735 35.4978 54.257 36.7111 54.257Z" fill="#53433F"/>
<path d="M54.2876 54.257C55.5009 54.257 56.4844 53.2735 56.4844 52.0602C56.4844 50.8469 55.5009 49.8634 54.2876 49.8634C53.0743 49.8634 52.0908 50.8469 52.0908 52.0602C52.0908 53.2735 53.0743 54.257 54.2876 54.257Z" fill="#3E322E"/>
<path d="M55.9125 64.9483C56.7474 65.8712 56.6593 67.2332 55.7369 68.068C52.9249 70.5725 49.278 71.9784 45.4993 71.9784V67.4966C48.1354 67.4966 50.8159 66.6178 52.8367 64.7724C53.7156 63.9818 55.1217 64.0699 55.9125 64.9483Z" fill="#FF4B00"/>
<path d="M69.6651 43.2725V45.4694L63.0745 45.4693C55.4293 45.4693 48.7947 41.1194 45.4994 34.7485L45.4993 19.1068C58.8124 19.1068 69.6651 29.9594 69.6651 43.2725Z" fill="#6D3326"/>
</g>
<defs>
<clipPath id="clip0_6350_27699">
<rect width="75" height="75" fill="white" transform="translate(8 14.7)"/>
</clipPath>
</defs>
</svg>
