<svg width="90" height="90" viewBox="0 0 90 90" fill="none" xmlns="http://www.w3.org/2000/svg">
<rect x="0.5" y="0.5" width="89" height="89" rx="44.5" fill="#E5F4FF"/>
<rect x="0.5" y="0.5" width="89" height="89" rx="44.5" stroke="#DAD5D0"/>
<g clip-path="url(#clip0_6350_27712)">
<path d="M33.2639 75.0503C33.2639 73.5468 31.965 72.6253 30.7053 72.8351L26.4823 73.5392C18.8742 73.6412 12.7149 79.858 12.707 87.4879C12.7057 88.7044 13.6877 89.7001 14.9043 89.7001H28.8691C31.2962 89.7001 33.2639 87.7327 33.2639 85.3056V75.0503Z" fill="#CF8055"/>
<path d="M57.736 75.0503C57.736 73.5468 59.0348 72.6253 60.2946 72.8351L64.5176 73.5392C72.1257 73.6412 78.2849 79.858 78.2928 87.4879C78.2942 88.7044 77.3121 89.7001 76.0956 89.7001H62.1308C59.7037 89.7001 57.736 87.7327 57.736 85.3056V75.0503Z" fill="#A85F2E"/>
<path d="M60.2947 72.8349L45.4999 70.3697L30.7051 72.8349C29.6456 73.0114 28.8689 73.9281 28.8689 75.0023V89.7H62.1306V75.0023C62.1307 73.9281 61.3542 73.0114 60.2947 72.8349Z" fill="#163230"/>
<path d="M62.1306 89.7V75.0023C62.1306 73.9281 61.3541 73.0114 60.2945 72.8349L45.4999 70.3697V89.7H62.1306Z" fill="#001100"/>
<path d="M50.2069 64.8228H40.7928C39.5793 64.8228 38.5955 65.8066 38.5955 67.0201V73.3816C38.5955 77.1886 41.6928 80.2858 45.4998 80.2858C49.3067 80.2858 52.404 77.1886 52.404 73.3816V67.0201C52.4041 65.8066 51.4204 64.8228 50.2069 64.8228Z" fill="#FFC2BE"/>
<path d="M52.4042 73.3816V67.0201C52.4042 65.8066 51.4204 64.8228 50.2069 64.8228H45.4999V80.286C49.3069 80.2858 52.4042 77.1886 52.4042 73.3816Z" fill="#FFA0A9"/>
<path d="M69.0352 54.3972H64.3282C63.1147 54.3972 62.1309 53.4134 62.1309 52.2V47.493C62.1309 43.686 65.2282 40.5887 69.0352 40.5887C72.8421 40.5887 75.9394 43.686 75.9394 47.493C75.9394 51.3 72.8421 54.3972 69.0352 54.3972Z" fill="#FFA0A9"/>
<path d="M26.6718 54.3972H21.9647C18.1577 54.3972 15.0605 51.3 15.0605 47.493C15.0605 43.686 18.1577 40.5887 21.9647 40.5887C25.7717 40.5887 28.8689 43.686 28.8689 47.493V52.2C28.8691 53.4134 27.8853 54.3972 26.6718 54.3972Z" fill="#FFC2BE"/>
<path d="M66.5252 31.5726C66.5252 25.7666 61.8186 21.0599 56.0125 21.0599H34.9872C29.1811 21.0599 24.4744 25.7666 24.4744 31.5726V54.5535C24.4744 63.0038 34.9631 69.695 45.4998 69.695C56.0132 69.695 66.5251 63.0225 66.5251 54.5535L66.5252 31.5726Z" fill="#FFE2D2"/>
<path d="M56.0126 21.0599H45.4999V69.695C56.0134 69.695 66.5251 63.0225 66.5251 54.5535L66.5252 31.5726C66.5252 25.7666 61.8186 21.0599 56.0126 21.0599Z" fill="#FFC2BE"/>
<path d="M45.4999 37.9226C42.0458 37.9226 38.8659 36.4258 36.6931 33.8862C35.1514 34.9653 33.2954 35.5691 31.3788 35.5691C26.274 35.5691 22.121 31.416 22.121 26.3113C22.121 21.2066 26.2741 17.0535 31.3788 17.0535C33.2954 17.0535 35.1514 17.6573 36.6931 18.7363C38.8659 16.1969 42.0458 14.7 45.4999 14.7C48.954 14.7 52.1339 16.1969 54.3067 18.7363C55.8484 17.6572 57.7044 17.0535 59.621 17.0535C64.7258 17.0535 68.8788 21.2065 68.8788 26.3113C68.8788 31.4162 64.7257 35.5691 59.621 35.5691C57.7044 35.5691 55.8484 34.9653 54.3067 33.8862C52.1339 36.4258 48.954 37.9226 45.4999 37.9226Z" fill="#FFC43C"/>
<path d="M45.4999 14.7C48.954 14.7 52.1339 16.1969 54.3067 18.7363C55.8484 17.6572 57.7044 17.0535 59.621 17.0535C64.7258 17.0535 68.8788 21.2065 68.8788 26.3113C68.8788 31.4162 64.7257 35.5691 59.621 35.5691C57.7044 35.5691 55.8484 34.9653 54.3067 33.8862C52.1339 36.4258 48.954 37.9226 45.4999 37.9226V14.7Z" fill="#FF9533"/>
<path d="M37.2626 46.16C36.0492 46.16 35.0654 45.1762 35.0654 43.9627V42.786C35.0654 41.5725 36.0492 40.5887 37.2626 40.5887C38.4761 40.5887 39.4599 41.5725 39.4599 42.786V43.9627C39.4599 45.1762 38.4761 46.16 37.2626 46.16Z" fill="#163230"/>
<path d="M53.7371 46.16C52.5236 46.16 51.5398 45.1762 51.5398 43.9627V42.786C51.5398 41.5725 52.5236 40.5887 53.7371 40.5887C54.9506 40.5887 55.9344 41.5725 55.9344 42.786V43.9627C55.9344 45.1762 54.9507 46.16 53.7371 46.16Z" fill="#001100"/>
<path d="M49.9051 51.5311C49.4707 50.398 48.1998 49.8314 47.067 50.2659C46.3669 50.5343 46.0149 50.5911 45.4999 50.5911C44.9849 50.5911 44.6329 50.5343 43.9328 50.2659C42.7999 49.8316 41.529 50.398 41.0947 51.5311C40.6604 52.6642 41.2268 53.9349 42.3599 54.3692C43.7034 54.8843 44.5921 54.9856 45.4999 54.9856C46.4077 54.9856 47.2964 54.8843 48.6399 54.3692C49.773 53.9349 50.3396 52.6642 49.9051 51.5311Z" fill="#FFC2BE"/>
<path d="M45.4999 54.9858C46.4077 54.9858 47.2964 54.8844 48.6399 54.3694C49.773 53.9351 50.3396 52.6642 49.9051 51.5311C49.4707 50.398 48.1998 49.8316 47.067 50.2661C46.3669 50.5344 46.0149 50.5913 45.4999 50.5913V54.9858Z" fill="#FFA0A9"/>
</g>
<defs>
<clipPath id="clip0_6350_27712">
<rect width="75" height="75" fill="white" transform="translate(8 14.7)"/>
</clipPath>
</defs>
</svg>
