<svg width="90" height="90" viewBox="0 0 90 90" fill="none" xmlns="http://www.w3.org/2000/svg">
<rect x="0.5" y="0.5" width="89" height="89" rx="44.5" fill="#E5F4FF"/>
<rect x="0.5" y="0.5" width="89" height="89" rx="44.5" stroke="#DAD5D0"/>
<g clip-path="url(#clip0_6350_27713)">
<path d="M64.5176 73.5392L45.5 70.3694L26.4824 73.5392C18.8693 73.6412 12.707 79.8659 12.707 87.5027C12.707 88.7162 13.6908 89.7 14.9042 89.7H24.4745C24.4745 88.4865 25.4583 87.5027 26.6718 87.5027C27.8853 87.5027 28.869 88.4865 28.869 89.7H62.1307C62.1307 88.4865 63.1145 87.5027 64.3279 87.5027C65.5414 87.5027 66.5252 88.4865 66.5252 89.7H76.0955C77.3089 89.7 78.2927 88.7162 78.2927 87.5027C78.293 79.8659 72.1306 73.6412 64.5176 73.5392Z" fill="#163230"/>
<path d="M62.1307 89.7C62.1307 88.4865 63.1145 87.5027 64.3279 87.5027C65.5414 87.5027 66.5252 88.4865 66.5252 89.7H76.0956C77.3091 89.7 78.2929 88.7162 78.2929 87.5027C78.2929 79.8659 72.1306 73.6412 64.5175 73.5392L45.5 70.3694V89.7H62.1307Z" fill="#001100"/>
<path d="M58.4444 14.7H32.5556C28.0997 14.7 24.4745 18.3251 24.4745 22.7811V28.3072C24.4745 28.9772 24.7802 29.6106 25.3048 30.0275C25.8293 30.4444 26.5155 30.5992 27.1682 30.4478C32.6381 29.1791 38.9771 28.5086 45.5 28.5086C52.0229 28.5086 58.3619 29.1791 63.8318 30.4476C64.4845 30.5991 65.1707 30.4442 65.6952 30.0273C66.2198 29.6104 66.5255 28.9772 66.5255 28.307V22.7811C66.5253 18.3251 62.9003 14.7 58.4444 14.7Z" fill="#A85F2E"/>
<path d="M45.5 14.7H58.4444C62.9003 14.7 66.5255 18.3251 66.5255 22.7811V28.307C66.5255 28.9772 66.2198 29.6104 65.6952 30.0273C65.1707 30.4442 64.4845 30.5991 63.8318 30.4476C58.3619 29.1791 52.0229 28.5086 45.5 28.5086V14.7Z" fill="#7F3C13"/>
<path d="M45.5 54.3972C66.2107 54.3972 83 47.6181 83 39.2556C83 30.8931 66.2107 24.1139 45.5 24.1139C24.7893 24.1139 8 30.8931 8 39.2556C8 47.6181 24.7893 54.3972 45.5 54.3972Z" fill="#CF8055"/>
<path d="M45.5 54.3972C65.536 54.3972 83 48.4233 83 39.2556C83 30.0878 65.536 24.1139 45.5 24.1139V54.3972Z" fill="#A85F2E"/>
<path d="M69.0352 54.3972H64.3281C63.1146 54.3972 62.1308 53.4134 62.1308 52.2V47.4928C62.1308 43.6858 65.2282 40.5886 69.0352 40.5886C72.8422 40.5886 75.9395 43.6858 75.9395 47.4928C75.9395 51.2998 72.8422 54.3972 69.0352 54.3972Z" fill="#FFA0A9"/>
<path d="M26.6719 54.3972H21.9648C18.1578 54.3972 15.0605 51.2998 15.0605 47.4928C15.0605 43.6858 18.1578 40.5886 21.9648 40.5886C25.7718 40.5886 28.869 43.6858 28.869 47.4928V52.2C28.8692 53.4134 27.8854 54.3972 26.6719 54.3972Z" fill="#FFC2BE"/>
<path d="M50.2071 63.6461H40.793C39.5795 63.6461 38.5958 64.6299 38.5958 65.8434V73.3816C38.5958 77.1886 41.693 80.286 45.5 80.286C49.307 80.286 52.4044 77.1886 52.4044 73.3816V65.8434C52.4044 64.6297 51.4206 63.6461 50.2071 63.6461Z" fill="#FFC2BE"/>
<path d="M52.4044 73.3816V65.8434C52.4044 64.6297 51.4206 63.6461 50.2071 63.6461H45.5V80.286C49.307 80.286 52.4044 77.1886 52.4044 73.3816Z" fill="#FFA0A9"/>
<path d="M59.4664 35.3521C55.7025 34.1758 50.7424 33.528 45.5 33.528C40.2576 33.528 35.2977 34.1758 31.5336 35.3521C25.6993 37.1752 24.4747 39.7611 24.4747 41.6091V53.3767C24.4747 61.8439 34.9845 68.5183 45.5 68.5183C56.0369 68.5183 66.5253 61.8266 66.5253 53.3767V41.6091C66.5253 39.7609 65.3007 37.1752 59.4664 35.3521Z" fill="#FFE2D2"/>
<path d="M45.5 68.5183C56.0369 68.5183 66.5253 61.8266 66.5253 53.3767V41.6091C66.5253 39.7609 65.3007 37.1752 59.4664 35.3521C55.7025 34.1758 50.7424 33.528 45.5 33.528V68.5183Z" fill="#FFC2BE"/>
<path d="M28.869 89.7L28.8692 73.3816C28.8692 72.1681 27.8854 71.1843 26.6719 71.1843C25.4584 71.1843 24.4747 72.1681 24.4747 73.3816L24.4745 89.7H28.869Z" fill="#ABEBF4"/>
<path d="M66.5252 89.7L66.5253 73.3816C66.5253 72.1681 65.5416 71.1843 64.3281 71.1843C63.1146 71.1843 62.1308 72.1681 62.1308 73.3816L62.1307 89.7H66.5252Z" fill="#39D4E7"/>
<path d="M36.0859 48.5134C34.8725 48.5134 33.8887 47.5296 33.8887 46.3161V45.1394C33.8887 43.9259 34.8725 42.9421 36.0859 42.9421C37.2994 42.9421 38.2832 43.9259 38.2832 45.1394V46.3161C38.2832 47.5296 37.2996 48.5134 36.0859 48.5134Z" fill="#163230"/>
<path d="M54.9141 48.5134C53.7006 48.5134 52.7168 47.5296 52.7168 46.3161V45.1394C52.7168 43.9259 53.7006 42.9421 54.9141 42.9421C56.1275 42.9421 57.1113 43.9259 57.1113 45.1394V46.3161C57.1113 47.5296 56.1275 48.5134 54.9141 48.5134Z" fill="#001100"/>
<path d="M49.9053 51.4133C49.4708 50.2803 48.1999 49.7137 47.0672 50.1481C46.3671 50.4165 46.0151 50.4733 45.5001 50.4733C44.985 50.4733 44.633 50.4165 43.933 50.1481C42.8001 49.7138 41.5292 50.2803 41.0948 51.4133C40.6605 52.5464 41.227 53.8171 42.36 54.2515C43.7036 54.7665 44.5923 54.8679 45.5001 54.8679C46.4078 54.8679 47.2965 54.7665 48.6401 54.2515C49.7732 53.8173 50.3398 52.5465 49.9053 51.4133Z" fill="#FFC2BE"/>
<path d="M45.5 54.868C46.4078 54.868 47.2965 54.7667 48.64 54.2516C49.7731 53.8173 50.3397 52.5465 49.9052 51.4135C49.4708 50.2804 48.1999 49.7138 47.0671 50.1483C46.367 50.4167 46.015 50.4735 45.5 50.4735V54.868Z" fill="#FFA0A9"/>
</g>
<defs>
<clipPath id="clip0_6350_27713">
<rect width="75" height="75" fill="white" transform="translate(8 14.7)"/>
</clipPath>
</defs>
</svg>
