<svg width="90" height="90" viewBox="0 0 90 90" fill="none" xmlns="http://www.w3.org/2000/svg">
<rect x="0.5" y="0.5" width="89" height="89" rx="44.5" fill="#E5F4FF"/>
<rect x="0.5" y="0.5" width="89" height="89" rx="44.5" stroke="#DAD5D0"/>
<g clip-path="url(#clip0_6350_27702)">
<path d="M64.0852 87.5027C64.0852 88.7156 63.1008 89.7 61.8879 89.7H29.1121C27.8992 89.7 26.9148 88.7156 26.9148 87.5027C26.9148 79.8826 33.114 73.6834 40.7327 73.6834H41.1062C41.5706 73.6834 42.0232 73.8313 42.3997 74.1038L45.4993 76.3596L45.5007 76.3611L48.6018 74.1038C48.9783 73.8313 49.4309 73.6834 49.8953 73.6834H50.2673C53.9587 73.6834 57.429 75.1218 60.0378 77.7322C62.6482 80.3411 64.0852 83.8113 64.0852 87.5027Z" fill="#FF5CA8"/>
<path d="M64.0852 87.5027C64.0852 88.7156 63.1008 89.7 61.8879 89.7H45.4993V76.3596L45.5007 76.3611L48.6018 74.1038C48.9783 73.8313 49.4309 73.6834 49.8953 73.6834H50.2673C53.9587 73.6834 57.429 75.1218 60.0378 77.7322C62.6482 80.3411 64.0852 83.8113 64.0852 87.5027Z" fill="#FF3997"/>
<path d="M49.8945 68.3718H41.1055C39.8926 68.3718 38.9082 69.3562 38.9082 70.5691V75.8806C38.9082 77.697 39.6479 79.3464 40.8418 80.5388C42.0342 81.7327 43.6836 82.4724 45.5 82.4724C49.1343 82.4724 52.0918 79.5149 52.0918 75.8806V70.5691C52.0918 69.3562 51.1074 68.3718 49.8945 68.3718Z" fill="#FFCBBA"/>
<path d="M52.0918 70.5691V75.8806C52.0918 79.5149 49.1343 82.4724 45.5 82.4724V68.3718H49.8945C51.1074 68.3718 52.0918 69.3562 52.0918 70.5691Z" fill="#FFBCA4"/>
<path d="M28.2134 58.6599C27.7959 59.1755 27.1675 59.4758 26.5039 59.4758H21.9878C19.9854 59.4758 18.1045 58.6965 16.6909 57.28C15.2759 55.8679 14.4966 53.9871 14.4966 51.9846C14.4966 47.8523 17.8569 44.4919 21.9878 44.4919H24.2305C25.2661 44.4919 26.1611 45.2156 26.3794 46.2278L28.6528 56.8171C28.792 57.4661 28.6294 58.1428 28.2134 58.6599Z" fill="#FFA78F"/>
<path d="M76.5033 51.9846C76.5033 53.9871 75.7241 55.8679 74.3075 57.2815C72.8954 58.6965 71.0146 59.4758 69.0121 59.4758H64.4975C63.8339 59.4758 63.2055 59.1755 62.788 58.6599C62.372 58.1428 62.2094 57.4661 62.3486 56.8171L64.622 46.2278C64.8403 45.2156 65.7353 44.4919 66.7709 44.4919H69.0121C73.143 44.4919 76.5033 47.8523 76.5033 51.9846Z" fill="#F89580"/>
<path d="M68.9771 46.0315C68.9771 53.2795 66.5806 59.9915 62.227 65.1462C57.7827 70.408 51.8428 73.3054 45.5 73.3054C39.1587 73.3054 33.2188 70.408 28.7744 65.1462C24.4443 60.0193 22.0493 53.2356 22.0229 46.0315C22.0229 34.5105 36.7871 26.2019 45.5 26.2019C54.6333 26.2019 68.9771 34.8181 68.9771 46.0315Z" fill="#FFCEBF"/>
<path d="M68.9771 46.0315C68.9771 53.2795 66.5806 59.9915 62.227 65.1462C57.7827 70.408 51.8428 73.3054 45.5 73.3054V26.2019C54.6333 26.2019 68.9771 34.8181 68.9771 46.0315Z" fill="#FFBFAB"/>
<path d="M77.6988 27.0398C77.6988 30.3123 76.4302 33.3958 74.129 35.7205C71.8277 38.0452 68.7588 39.343 65.4893 39.3767H65.4673C64.7657 39.3767 64.105 39.0413 63.6905 38.4729L53.9639 25.1135C53.5464 24.5393 53.4322 23.7981 53.6563 23.1243C55.3409 18.0852 60.043 14.7 65.3589 14.7C72.1631 14.7 77.6988 20.2356 77.6988 27.0398Z" fill="#55271A"/>
<path d="M37.0376 25.1135L27.311 38.4729C26.8965 39.0413 26.2358 39.3767 25.5342 39.3767H25.5122C22.2427 39.343 19.1753 38.0452 16.874 35.7219C14.5713 33.3958 13.3027 30.3123 13.3027 27.0398C13.3027 20.2356 18.8384 14.7 25.6411 14.7C30.957 14.7 35.6606 18.0852 37.3452 23.1243C37.5693 23.7981 37.4551 24.5393 37.0376 25.1135Z" fill="#6D3326"/>
<path d="M68.9771 46.0315L66.5103 45.9568C60.5981 45.9509 52.4521 44.5403 47.1567 37.8621C46.502 37.0359 45.9556 36.2068 45.5 35.4099C45.0444 36.2068 44.498 37.0359 43.8433 37.8621C38.5478 44.5403 30.4019 45.9509 24.4897 45.9568L22.0229 46.0315C22.0229 38.3176 24.6084 31.6116 28.7744 26.678C33.2188 21.4177 39.1587 18.5188 45.5 18.5188C51.8413 18.5188 57.7812 21.4177 62.2256 26.678C66.3916 31.6116 68.9771 38.3176 68.9771 46.0315Z" fill="#883F2E"/>
<path d="M35.0938 52.4702C36.3073 52.4702 37.2911 51.4865 37.2911 50.2729C37.2911 49.0594 36.3073 48.0757 35.0938 48.0757C33.8803 48.0757 32.8965 49.0594 32.8965 50.2729C32.8965 51.4865 33.8803 52.4702 35.0938 52.4702Z" fill="#53433F"/>
<path d="M55.9063 52.4702C57.1198 52.4702 58.1036 51.4865 58.1036 50.2729C58.1036 49.0594 57.1198 48.0757 55.9063 48.0757C54.6928 48.0757 53.709 49.0594 53.709 50.2729C53.709 51.4865 54.6928 52.4702 55.9063 52.4702Z" fill="#3E322E"/>
<path d="M49.6397 63.4895C48.3242 64.0857 46.9121 64.3831 45.5 64.3831C44.0879 64.3831 42.6758 64.0857 41.3604 63.4895C40.2559 62.9885 39.7651 61.6863 40.2661 60.5818C40.7671 59.4758 42.0693 58.9851 43.1738 59.4861C43.9121 59.8215 44.7061 59.99 45.5 59.99C46.2939 59.99 47.0879 59.8215 47.8262 59.4861C48.9307 58.9866 50.2329 59.4758 50.7339 60.5818C51.2349 61.6863 50.7441 62.9885 49.6397 63.4895Z" fill="#FF80A9"/>
<path d="M49.6397 63.4895C48.3242 64.0857 46.9121 64.3831 45.5 64.3831V59.99C46.2939 59.99 47.0879 59.8215 47.8262 59.4861C48.9307 58.9866 50.2329 59.4758 50.7339 60.5818C51.2349 61.6863 50.7441 62.9885 49.6397 63.4895Z" fill="#FD6194"/>
<path d="M68.9771 46.0315L66.5103 45.9568C60.5981 45.9509 52.4521 44.5403 47.1567 37.8621C46.502 37.0359 45.9556 36.2068 45.5 35.4099V18.5188C51.8413 18.5188 57.7812 21.4177 62.2256 26.678C66.3916 31.6116 68.9771 38.3176 68.9771 46.0315Z" fill="#6D3326"/>
</g>
<defs>
<clipPath id="clip0_6350_27702">
<rect width="75" height="75" fill="white" transform="translate(8 14.7)"/>
</clipPath>
</defs>
</svg>
