<svg width="90" height="90" viewBox="0 0 90 90" fill="none" xmlns="http://www.w3.org/2000/svg">
<rect x="0.5" y="0.5" width="89" height="89" rx="44.5" fill="#E5F4FF"/>
<rect x="0.5" y="0.5" width="89" height="89" rx="44.5" stroke="#DAD5D0"/>
<g clip-path="url(#clip0_6350_27705)">
<path d="M45.4992 14.7C27.6901 14.7 13.1191 29.2621 13.1191 47.0604V73.6738C13.1191 74.8873 14.1029 75.8711 15.3164 75.8711H75.6817C76.8952 75.8711 77.879 74.8873 77.879 73.6738V47.0604C77.879 29.2621 63.3079 14.7 45.4992 14.7Z" fill="#FED843"/>
<path d="M45.4992 14.7C45.4748 14.7 45.4504 14.7008 45.4258 14.7008V75.8709H75.6817C76.8952 75.8709 77.879 74.8872 77.879 73.6737V47.0604C77.879 29.2621 63.3079 14.7 45.4992 14.7Z" fill="#FFB64C"/>
<path d="M73.2016 46.6961H63.9657V56.051H73.2016C75.7849 56.051 77.879 53.9569 77.879 51.3736C77.879 48.7902 75.7849 46.6961 73.2016 46.6961Z" fill="#FFB3B3"/>
<path d="M17.7967 56.0509H27.0327V46.6959H17.7967C15.2134 46.6959 13.1193 48.7901 13.1193 51.3733C13.1191 53.9567 15.2133 56.0509 17.7967 56.0509Z" fill="#FFCABF"/>
<path d="M53.2243 69.0234H37.7737C29.2656 69.0234 22.3684 75.9206 22.3684 84.4287V87.5027C22.3684 88.7162 23.3522 89.7 24.5657 89.7H66.4327C67.6461 89.7 68.6299 88.7162 68.6299 87.5027V84.4287C68.6298 75.9206 61.7326 69.0234 53.2243 69.0234Z" fill="#FF6666"/>
<path d="M53.2243 69.0234L45.4258 69.0234V89.7H66.4327C67.6461 89.7 68.6299 88.7162 68.6299 87.5027V84.4287C68.6299 75.9206 61.7326 69.0234 53.2243 69.0234Z" fill="#E62E6B"/>
<path d="M61.8157 40.1153C51.132 39.6804 47.4351 34.2282 46.1612 30.2604C46.0644 29.9588 45.7874 29.7518 45.4707 29.7518H45.463C45.1495 29.7518 44.8745 29.9545 44.7752 30.2518C43.4516 34.2156 39.7153 39.6676 29.1825 40.1151H26.3002C25.0867 40.1151 24.1029 41.0989 24.1029 42.3124V54.4875C24.1029 66.2972 33.6822 75.8708 45.4991 75.8708C57.316 75.8708 66.8954 66.2972 66.8954 54.4875V42.3124C66.8954 41.0989 65.9116 40.1151 64.6981 40.1151L61.8157 40.1153Z" fill="#FFDDCC"/>
<path d="M64.698 40.1153L61.8157 40.1153C51.132 39.6804 47.4351 34.2282 46.1612 30.2604C46.0644 29.9588 45.7874 29.7518 45.4707 29.7518H45.463C45.4504 29.7518 45.4383 29.7542 45.4258 29.7547V75.8699C45.4503 75.8699 45.4747 75.8708 45.4991 75.8708C57.316 75.8708 66.8954 66.2972 66.8954 54.4875V42.3124C66.8954 41.0991 65.9115 40.1153 64.698 40.1153Z" fill="#FFCABF"/>
<path d="M45.4991 66.1978C43.1224 66.1978 40.8245 65.3367 39.0289 63.7729C38.1137 62.9761 38.0179 61.588 38.8149 60.6729C39.6116 59.7577 40.9997 59.662 41.9149 60.4587C42.9106 61.3258 44.1835 61.8033 45.4993 61.8033C46.815 61.8033 48.0881 61.3258 49.0837 60.4587C49.9991 59.6622 51.387 59.7578 52.1838 60.6729C52.9806 61.5881 52.8847 62.9761 51.9696 63.7729C50.1736 65.3367 47.8758 66.1978 45.4991 66.1978Z" fill="#FF6666"/>
<path d="M49.0835 60.4587C48.0879 61.3258 46.8149 61.8033 45.4991 61.8033C45.4746 61.8033 45.4503 61.802 45.4258 61.8017V66.1962C45.4503 66.1964 45.4746 66.1978 45.4991 66.1978C47.8758 66.1978 50.1735 65.3367 51.9694 63.7729C52.8845 62.9761 52.9805 61.5881 52.1836 60.6729C51.3867 59.7578 49.9989 59.662 49.0835 60.4587Z" fill="#E62E6B"/>
<path d="M54.4701 54.8094C55.6194 54.8094 56.7205 53.7988 56.6673 52.6122C56.614 51.4217 55.7019 50.4149 54.4701 50.4149C53.3207 50.4149 52.2196 51.4255 52.2728 52.6122C52.3261 53.8026 53.2383 54.8094 54.4701 54.8094Z" fill="#001E49"/>
<path d="M36.5282 54.8094C37.6775 54.8094 38.7786 53.7988 38.7254 52.6122C38.6721 51.4217 37.7599 50.4149 36.5282 50.4149C35.3788 50.4149 34.2777 51.4255 34.3309 52.6122C34.3842 53.8026 35.2964 54.8094 36.5282 54.8094Z" fill="#093968"/>
</g>
<defs>
<clipPath id="clip0_6350_27705">
<rect width="75" height="75" fill="white" transform="translate(8 14.7)"/>
</clipPath>
</defs>
</svg>
