<svg width="584" height="620" viewBox="0 0 584 620" fill="none" xmlns="http://www.w3.org/2000/svg">
<path d="M241.033 610.998L231.713 201.367L58.0334 201.367L60.575 610.998H241.033Z" fill="#F1F6FF"/>
<path d="M302.88 608.881V337.77L512.567 343.89V608.881H302.88Z" fill="#FEFCED"/>
<path d="M58.0337 201.367L60.5753 610.998H159.276L154.617 201.367H58.0337Z" fill="#7398F7"/>
<path d="M182.997 159.855H110.984V201.369H182.997V159.855Z" fill="#1F1D42"/>
<path d="M110.984 159.855V201.369H159.699C136.316 196.285 129.058 171.575 128.352 159.855H110.984Z" fill="#1F1717"/>
<path d="M152.499 89.1111L144.026 88.2639C141.908 87.4167 141.485 77.6737 149.533 79.7917C155.972 81.4861 154.193 86.7107 152.499 89.1111Z" fill="#0E173D"/>
<path d="M152.499 89.112L144.027 88.2648V100.549L152.499 101.397V89.112Z" fill="#0E173D"/>
<path d="M144.026 100.548L152.498 101.396L183.845 123.847H110.561L144.026 100.548Z" fill="#1F1D42"/>
<path d="M323.637 403.007H316.859V451.298H313.894V456.381H326.602V449.604H323.637V403.007Z" fill="#1B2A63"/>
<path d="M512.566 612.269H302.88V473.325L512.566 476.385V612.269Z" fill="#A3BDFF"/>
<path d="M448.178 242.458L221.546 235.257L302.879 337.77L520.615 344.124L448.178 242.458Z" fill="#063183"/>
<path d="M302.879 337.77L520.615 344.124L316.011 238.258L221.546 235.257L302.879 337.77Z" fill="#7087FB"/>
<path d="M221.547 235.257L302.88 337.77V605.915L152.922 613.117V476.291V337.77L193.165 284.819H184.269L221.547 235.257Z" fill="#CFDEF3"/>
<path d="M250.776 297.527H206.297V350.902H250.776V297.527Z" fill="#0C183F"/>
<rect x="211.38" y="303.033" width="15.2499" height="18.6388" fill="#1F326B"/>
<rect x="232.561" y="303.033" width="15.2499" height="18.6388" fill="#1F326B"/>
<rect x="232.561" y="328.451" width="15.2499" height="18.6388" fill="#1F326B"/>
<path d="M110.562 123.846H183.847H188.93V125.964H104.632V123.846H110.562Z" stroke="black"/>
<path d="M150.805 378.012H303.728H512.991" stroke="black" stroke-width="4"/>
<path d="M151.653 486.457H301.187H511.297" stroke="black" stroke-width="5"/>
<path d="M151.653 486.457H301.187" stroke="#5267FA" stroke-width="6"/>
<rect x="211.38" y="328.451" width="15.2499" height="18.6388" fill="#1F326B"/>
<path d="M113.526 289.901H91.0748V350.901H115.221L113.526 289.901Z" fill="#0E173D"/>
<path d="M113.526 395.381H91.0748V456.381H115.221L113.526 395.381Z" fill="#0C193F"/>
<path d="M114.798 267.027H91.923V220.43C97.3452 205.18 106.326 214.076 110.138 220.43L114.798 267.027Z" fill="#1F1D42"/>
<path d="M352.02 247.118H327.874L306.694 240.763V201.368V199.25L327.874 198.677L353.714 197.979L353.598 201.368L352.02 247.118Z" fill="#1F326B"/>
<path d="M352.02 247.118H327.874V201.368V198.677L353.714 197.979L353.597 201.368L352.02 247.118Z" fill="#FEFDE8"/>
<path d="M306.694 199.25L327.874 198.677L353.714 197.979L353.598 201.368H327.874H306.694V199.25Z" fill="#112F7F"/>
<rect x="180.882" y="125.966" width="1.69444" height="33.8888" fill="#0C1942"/>
<rect x="241.033" y="166.632" width="1.69444" height="189.777" transform="rotate(90 241.033 166.632)" fill="#0C1942"/>
<rect x="241.033" y="199.673" width="1.69444" height="189.777" transform="rotate(90 241.033 199.673)" fill="#0C1942"/>
<path d="M58.0016 231.867H155.855H232.502" stroke="#18265D" stroke-width="4"/>
<rect x="241.033" y="186.118" width="1.69444" height="189.777" transform="rotate(90 241.033 186.118)" fill="#081334"/>
<rect x="110.561" y="125.966" width="1.69444" height="33.8888" fill="#132355"/>
<rect x="128.353" y="131.895" width="1.69444" height="27.9582" fill="#132355"/>
<rect x="131.741" y="131.895" width="1.69444" height="27.9582" fill="#132355"/>
<rect x="136.824" y="131.895" width="1.69444" height="27.9582" fill="#132355"/>
<path d="M221.546 235.257L227.26 244.153M302.879 337.77L296.72 330.145M227.26 244.153L453.309 249.66M227.26 244.153L237.525 256.861M237.525 256.861L462.061 261.944M237.525 256.861L248.817 270.84M248.817 270.84L470.814 274.229M248.817 270.84L257.977 282.18M257.977 282.18L479.567 286.514M257.977 282.18L269.005 295.833M269.005 295.833L488.42 298.939M269.005 295.833L278.243 307.27M278.243 307.27L497.74 312.019M278.243 307.27L290.561 322.52M290.561 322.52H505.222M290.561 322.52L296.72 330.145M296.72 330.145L512.918 333.322" stroke="#A3BDFF" stroke-width="4"/>
<rect x="83.4513" y="168.327" width="1.69444" height="31.3471" fill="#121B3A"/>
<rect x="51.2563" y="168.327" width="1.69444" height="31.3471" fill="#121B3A"/>
<rect x="239.338" y="168.327" width="1.69444" height="31.3471" fill="#121B3A"/>
<path d="M377.436 511.026H363.881V579.651H377.436V511.026Z" fill="#0C183F"/>
<path d="M363.881 579.651H377.436V545.339H363.881V579.651Z" fill="#17275F"/>
<path d="M489.692 548.304H467.241V580.499H489.692V548.304Z" fill="#17275F"/>
<path d="M148.687 79.7914L146.993 1" stroke="black" stroke-width="3"/>
<rect x="210.534" y="168.327" width="1.69444" height="31.3471" fill="#121B3A"/>
<rect x="151.228" y="168.327" width="1.69444" height="31.3471" fill="#121B3A"/>
<rect x="77.52" y="168.327" width="1.69444" height="31.3471" fill="#121B3A"/>
<rect x="204.603" y="168.327" width="1.69444" height="31.3471" fill="#121B3A"/>
<rect x="204.603" y="168.327" width="1.69444" height="31.3471" fill="#121B3A"/>
<rect x="145.298" y="168.327" width="1.69444" height="31.3471" fill="#121B3A"/>
<rect x="158.853" y="131.895" width="1.69444" height="27.9582" fill="#121B3A"/>
<rect x="162.242" y="131.895" width="1.69444" height="27.9582" fill="#121B3A"/>
<rect x="152.922" y="131.895" width="1.69444" height="27.9582" fill="#121B3A"/>
<path d="M467.241 580.499H489.692V564.402H467.241V580.499Z" fill="#0F1C49"/>
<path d="M503.671 556.353H495.199V574.145L503.671 573.721V556.353Z" fill="#FAF2E2"/>
<path d="M200.366 511.449V548.727H204.602V604.643H211.803V546.185H207.144V517.803H248.657V546.185H241.88V604.643H246.116V548.727H254.164V511.449H200.366Z" fill="#0D0808"/>
<path d="M241.882 546.186V604.644H211.805V546.186H207.146V517.804H248.659V546.186H241.882Z" fill="#17275F"/>
<path d="M584.001 611.421H0.000671387V620H584.001V611.421Z" fill="#091D39"/>
<path d="M571.874 611.422V576.686M510.027 576.686V611.422M446.485 576.686V611.422M385.909 576.686V611.422M323.215 576.686V611.422M259.25 576.686V611.422M201.639 576.686V611.422M136.827 576.686V611.422M74.1327 576.686V611.422M14.4037 576.686V611.422" stroke="black" stroke-width="4"/>
<path d="M571.874 582C558.601 593.579 527.649 609.789 510.027 582C495.624 590.755 462.752 602.78 446.485 581.769C433.777 590.241 403.87 603.288 385.909 587.699C373.342 593.489 343.209 601.594 323.215 587.699C305.706 591.371 268.4 596.511 259.25 587.699C247.389 591.371 219.261 596.511 201.639 587.699C184.553 591.371 147.671 596.511 136.827 587.699C118.753 593.912 89.8064 602.102 74.1325 587.699C57.0813 591.371 23.3702 597.311 13.5011 588.5" stroke="black" stroke-width="3"/>
<circle cx="571.966" cy="574.965" r="2.96527" fill="#06162A"/>
<circle cx="510.027" cy="574.568" r="2.96527" fill="#06162A"/>
<circle cx="446.485" cy="575.416" r="2.96527" fill="#06162A"/>
<circle cx="385.966" cy="574.965" r="2.96527" fill="#06162A"/>
<circle cx="322.966" cy="574.965" r="2.96527" fill="#06162A"/>
<circle cx="259.249" cy="575.416" r="2.96527" fill="#06162A"/>
<circle cx="201.639" cy="574.568" r="2.96527" fill="#06162A"/>
<circle cx="136.966" cy="574.568" r="2.96527" fill="#06162A"/>
<circle cx="73.9659" cy="576.262" r="2.96527" fill="#06162A"/>
<circle cx="13.9659" cy="577.965" r="2.96527" fill="#06162A"/>
<path d="M56.7646 45.479L69.4729 56.4928L82.1812 45.479" stroke="black" stroke-width="4"/>
<path d="M8.47229 38.7016L21.1806 49.7154L33.8889 38.7016" stroke="black" stroke-width="4"/>
<path d="M63.542 16.675L76.2503 27.6889L88.9586 16.675" stroke="black" stroke-width="4"/>
<path d="M133.015 20.9098L145.723 31.9236L158.431 20.9098" stroke="black" stroke-width="4"/>
<path d="M255.861 390.298H210.111L211.806 458.076H255.861V390.298Z" fill="#0F1F4C"/>
<path d="M244.848 401.736H221.126V446.638H244.848V401.736Z" fill="#142553"/>
</svg>
